<svg xmlns="http://www.w3.org/2000/svg" viewBox="0 0 240 255" fill="none">
  <g stroke="#009AC9" stroke-linecap="round" stroke-linejoin="round">
    <!-- NE blade -->
    <line x1="120" y1="95" x2="162" y2="53" stroke-width="5"/>
    <line x1="129" y1="86" x2="122" y2="79" stroke-width="3.5"/>
    <line x1="129" y1="86" x2="136" y2="93" stroke-width="3.5"/>
    <line x1="137" y1="78" x2="131" y2="72" stroke-width="3.5"/>
    <line x1="137" y1="78" x2="143" y2="84" stroke-width="3.5"/>
    <line x1="146" y1="70" x2="141" y2="65" stroke-width="3"/>
    <line x1="146" y1="70" x2="151" y2="75" stroke-width="3"/>
    <line x1="154" y1="61" x2="150" y2="57" stroke-width="2.5"/>
    <line x1="154" y1="61" x2="158" y2="65" stroke-width="2.5"/>
    <!-- NW blade -->
    <line x1="120" y1="95" x2="78" y2="53" stroke-width="5"/>
    <line x1="111" y1="86" x2="118" y2="79" stroke-width="3.5"/>
    <line x1="111" y1="86" x2="104" y2="93" stroke-width="3.5"/>
    <line x1="103" y1="78" x2="109" y2="72" stroke-width="3.5"/>
    <line x1="103" y1="78" x2="97" y2="84" stroke-width="3.5"/>
    <line x1="94" y1="70" x2="99" y2="65" stroke-width="3"/>
    <line x1="94" y1="70" x2="89" y2="75" stroke-width="3"/>
    <line x1="86" y1="61" x2="90" y2="57" stroke-width="2.5"/>
    <line x1="86" y1="61" x2="82" y2="65" stroke-width="2.5"/>
    <!-- SE blade -->
    <line x1="120" y1="95" x2="162" y2="137" stroke-width="5"/>
    <line x1="129" y1="104" x2="136" y2="97" stroke-width="3.5"/>
    <line x1="129" y1="104" x2="122" y2="111" stroke-width="3.5"/>
    <line x1="137" y1="112" x2="143" y2="106" stroke-width="3.5"/>
    <line x1="137" y1="112" x2="131" y2="118" stroke-width="3.5"/>
    <line x1="146" y1="120" x2="151" y2="115" stroke-width="3"/>
    <line x1="146" y1="120" x2="141" y2="125" stroke-width="3"/>
    <line x1="154" y1="129" x2="158" y2="125" stroke-width="2.5"/>
    <line x1="154" y1="129" x2="150" y2="133" stroke-width="2.5"/>
    <!-- SW blade -->
    <line x1="120" y1="95" x2="78" y2="137" stroke-width="5"/>
    <line x1="111" y1="104" x2="104" y2="97" stroke-width="3.5"/>
    <line x1="111" y1="104" x2="118" y2="111" stroke-width="3.5"/>
    <line x1="103" y1="112" x2="97" y2="106" stroke-width="3.5"/>
    <line x1="103" y1="112" x2="109" y2="118" stroke-width="3.5"/>
    <line x1="94" y1="120" x2="89" y2="115" stroke-width="3"/>
    <line x1="94" y1="120" x2="99" y2="125" stroke-width="3"/>
    <line x1="86" y1="129" x2="82" y2="125" stroke-width="2.5"/>
    <line x1="86" y1="129" x2="90" y2="133" stroke-width="2.5"/>
    <!-- H structure: left post -->
    <path d="M 114 95 Q 102 135 88 180" stroke-width="5"/>
    <!-- H structure: right post -->
    <path d="M 126 95 Q 138 135 152 180" stroke-width="5"/>
    <!-- H crossbar -->
    <line x1="103" y1="133" x2="137" y2="133" stroke-width="5"/>
  </g>
  <!-- MOLINOS DEL -->
  <text
    x="120" y="210"
    font-family="'Arial Black', 'Arial Bold', Arial, Helvetica, sans-serif"
    font-weight="700"
    font-size="15"
    fill="#009AC9"
    text-anchor="middle"
    letter-spacing="3.5">MOLINOS DEL</text>
  <!-- HIGUAMO -->
  <text
    x="120" y="246"
    font-family="'Arial Black', 'Arial Bold', Arial, Helvetica, sans-serif"
    font-weight="900"
    font-size="34"
    fill="#009AC9"
    text-anchor="middle"
    letter-spacing="1">HIGUAMO</text>
</svg>
