<svg xmlns="http://www.w3.org/2000/svg" viewBox="0 0 64 64">
  <rect width="64" height="64" fill="#009AC9" rx="12"/>
  <g stroke="white" stroke-linecap="round" stroke-linejoin="round" fill="none">
    <!-- NE blade -->
    <line x1="32" y1="27" x2="44" y2="15" stroke-width="2.6"/>
    <line x1="36" y1="23" x2="32" y2="19" stroke-width="1.9"/>
    <line x1="36" y1="23" x2="40" y2="27" stroke-width="1.9"/>
    <line x1="40" y1="19" x2="36" y2="15" stroke-width="1.9"/>
    <line x1="40" y1="19" x2="44" y2="23" stroke-width="1.9"/>
    <!-- NW blade -->
    <line x1="32" y1="27" x2="20" y2="15" stroke-width="2.6"/>
    <line x1="28" y1="23" x2="32" y2="19" stroke-width="1.9"/>
    <line x1="28" y1="23" x2="24" y2="27" stroke-width="1.9"/>
    <line x1="24" y1="19" x2="28" y2="15" stroke-width="1.9"/>
    <line x1="24" y1="19" x2="20" y2="23" stroke-width="1.9"/>
    <!-- SE blade -->
    <line x1="32" y1="27" x2="44" y2="39" stroke-width="2.6"/>
    <line x1="36" y1="31" x2="40" y2="27" stroke-width="1.9"/>
    <line x1="36" y1="31" x2="32" y2="35" stroke-width="1.9"/>
    <line x1="40" y1="35" x2="44" y2="31" stroke-width="1.9"/>
    <line x1="40" y1="35" x2="36" y2="39" stroke-width="1.9"/>
    <!-- SW blade -->
    <line x1="32" y1="27" x2="20" y2="39" stroke-width="2.6"/>
    <line x1="28" y1="31" x2="24" y2="27" stroke-width="1.9"/>
    <line x1="28" y1="31" x2="32" y2="35" stroke-width="1.9"/>
    <line x1="24" y1="35" x2="20" y2="31" stroke-width="1.9"/>
    <line x1="24" y1="35" x2="28" y2="39" stroke-width="1.9"/>
    <!-- H structure -->
    <path d="M 30 27 Q 25 38 20 52" stroke-width="2.6"/>
    <path d="M 34 27 Q 39 38 44 52" stroke-width="2.6"/>
    <line x1="26" y1="36" x2="38" y2="36" stroke-width="2.6"/>
  </g>
</svg>
